<?xml version="1.0" standalone="no"?>
<!DOCTYPE svg PUBLIC "-//W3C//DTD SVG 20010904//EN"
 "http://www.w3.org/TR/2001/REC-SVG-20010904/DTD/svg10.dtd">
<svg version="1.0" xmlns="http://www.w3.org/2000/svg"
 width="700.000000pt" height="700.000000pt" viewBox="0 0 700.000000 700.000000"
 preserveAspectRatio="xMidYMid meet">
<metadata>
Created by potrace 1.11, written by Peter Selinger 2001-2013
</metadata>
<g transform="translate(0.000000,700.000000) scale(0.100000,-0.100000)"
fill="#000000" stroke="none">
<path d="M1079 5527 c-137 -51 -206 -157 -197 -302 10 -148 116 -252 268 -262
119 -9 227 54 281 164 33 65 33 188 1 248 -30 57 -83 109 -139 136 -58 28
-161 36 -214 16z"/>
<path d="M2235 5522 c-35 -11 -67 -33 -106 -72 -47 -47 -58 -65 -74 -122 -37
-139 23 -271 155 -340 l45 -23 1830 0 1830 0 54 30 c65 36 123 105 141 169 18
67 9 174 -20 223 -35 58 -70 92 -125 121 l-50 27 -1815 2 c-1663 2 -1819 0
-1865 -15z"/>
<path d="M1079 3777 c-137 -51 -206 -157 -197 -302 10 -148 116 -252 268 -262
119 -9 227 54 281 164 33 65 33 188 1 248 -30 57 -83 109 -139 136 -58 28
-161 36 -214 16z"/>
<path d="M2235 3772 c-35 -11 -67 -33 -106 -72 -47 -47 -58 -65 -74 -122 -37
-139 23 -271 155 -340 l45 -23 1830 0 1830 0 54 30 c65 36 123 105 141 169 18
67 9 174 -20 223 -35 58 -70 92 -125 121 l-50 27 -1815 2 c-1663 2 -1819 0
-1865 -15z"/>
<path d="M1079 2027 c-137 -51 -206 -157 -197 -302 10 -148 116 -252 268 -262
119 -9 227 54 281 164 33 65 33 188 1 248 -30 57 -83 109 -139 136 -58 28
-161 36 -214 16z"/>
<path d="M2235 2022 c-35 -11 -67 -33 -106 -72 -47 -47 -58 -65 -74 -122 -37
-139 23 -271 155 -340 l45 -23 1830 0 1830 0 54 30 c65 36 123 105 141 169 18
67 9 174 -20 223 -35 58 -70 92 -125 121 l-50 27 -1815 2 c-1663 2 -1819 0
-1865 -15z"/>
</g>
</svg>
